<?xml version="1.0" encoding="UTF-8"?>
<svg xmlns="http://www.w3.org/2000/svg" width="113" height="75" viewBox="0 0 113 75" fill="none">
  <g clip-path="url(#clip0_3101_269349)">
    <path d="M0.285156 61.0293V74.9321H101.449C106.228 74.9321 108.667 72.8141 108.667 67.5541V61.0293H0.285156Z" fill="white"></path>
    <path d="M63.5449 17.5242V54.7356H70.0697C75.3196 54.7356 77.4477 52.2963 77.4477 47.5181V17.5142H63.5449V17.5242Z" fill="white"></path>
    <path d="M61.6391 17.5244H47.7363V47.5284C47.7363 52.3065 49.8544 54.7458 55.1144 54.7458H61.6391V17.5244Z" fill="white"></path>
    <path d="M22.6303 17.5244H16.1055V54.7458H22.6804C27.9304 54.7458 29.9982 52.3065 29.9982 47.5284V24.7418C29.9982 19.9637 27.8802 17.5244 22.6202 17.5244" fill="white"></path>
    <path d="M14.188 0.138184H0.285156V54.7456H14.188V0.138184Z" fill="white"></path>
    <path d="M45.8188 0.138184H31.916V54.7456H45.8188V0.138184Z" fill="white"></path>
    <path d="M79.3555 17.5244V47.5284C79.3555 52.3065 81.4836 54.7458 86.7335 54.7458H93.2583V17.5244H79.3555Z" fill="white"></path>
    <path d="M101.701 17.5244H95.1758V39.0261H109.079V24.7418C109.079 19.9637 106.951 17.5244 101.701 17.5244Z" fill="white"></path>
    <path d="M101.71 54.7458H95.1855V40.9434H109.088V47.5284C109.088 52.3065 106.97 54.7458 101.71 54.7458Z" fill="white"></path>
    <path d="M109.65 17.8456H109.088V17.5244H110.604V17.8456H110.042V19.4517H109.65V17.8456Z" fill="white"></path>
    <path d="M110.855 17.5244H111.438L111.779 18.8394H111.789L112.13 17.5244H112.713V19.4517H112.351V17.936H112.341L111.97 19.4517H111.598L111.227 17.936H111.217V19.4517H110.855V17.5244Z" fill="white"></path>
    <path d="M13.6067 66.9218C13.4662 66.3797 13.0346 65.6269 11.9103 65.6269C10.5551 65.6269 9.993 66.8315 9.993 68.016C9.993 69.2005 10.5551 70.405 11.9103 70.405C12.8137 70.405 13.6368 69.7626 13.6368 68.829H11.9605V67.7048H14.8113V71.4189H13.7071V70.8367C13.2554 71.3386 12.5126 71.5895 11.9203 71.5895C9.74205 71.5895 8.66797 69.9332 8.66797 68.016C8.66797 66.0987 9.89262 64.4424 11.9203 64.4424C13.3056 64.4424 14.2994 65.135 14.8113 66.44L13.6168 66.9218H13.6067Z" fill="#001F47"></path>
    <path d="M17.1194 64.6133H19.9602C21.4057 64.6133 22.2489 65.4766 22.2489 66.6711C22.2489 68.1969 21.225 68.5482 20.9038 68.6787L22.4195 71.4191H20.9339L19.6189 68.9196H18.3943V71.4191H17.1094V64.6233L17.1194 64.6133ZM18.4043 67.7753H19.7996C20.4521 67.7753 20.9138 67.3938 20.9138 66.7514C20.9138 66.109 20.4922 65.7275 19.6089 65.7275H18.4043V67.7753Z" fill="#001F47"></path>
    <path d="M30.5516 68.0062C30.5516 69.9235 29.3269 71.5798 27.2992 71.5798C25.2715 71.5798 24.0469 69.9235 24.0469 68.0062C24.0469 66.0889 25.2715 64.4326 27.2992 64.4326C29.3269 64.4326 30.5516 66.0889 30.5516 68.0062ZM25.3719 68.0062C25.3719 69.1907 25.934 70.3953 27.2892 70.3953C28.6443 70.3953 29.2065 69.1907 29.2065 68.0062C29.2065 66.8217 28.6443 65.6171 27.2892 65.6171C25.934 65.6171 25.3719 66.8217 25.3719 68.0062Z" fill="#001F47"></path>
    <path d="M38.1703 69.3212C38.1703 70.7064 37.0761 71.5898 35.4299 71.5898C33.7836 71.5898 32.6895 70.7064 32.6895 69.3212V64.6133H33.9743V68.9899C33.9743 69.8231 34.3257 70.3451 35.4399 70.3451C36.5541 70.3451 36.9055 69.8231 36.9055 68.9899V64.6133H38.1903V69.3212H38.1703Z" fill="#001F47"></path>
    <path d="M40.5586 64.6133H43.2589C44.8549 64.6133 45.6379 65.587 45.6379 66.902C45.6379 68.217 44.6943 69.1204 43.3492 69.1204H41.8435V71.4091H40.5586V64.6133ZM41.8435 68.0463H43.1183C43.9214 68.0463 44.3129 67.5645 44.3129 66.902C44.3129 65.9584 43.8109 65.6773 43.0681 65.6773H41.8435V68.0463Z" fill="#001F47"></path>
  </g>
  <defs>
    <clipPath id="clip0_3101_269349">
      <rect width="112.427" height="74.7941" fill="white" transform="translate(0.285156 0.138184)"></rect>
    </clipPath>
  </defs>
</svg>
