<svg viewBox="0 0 162 66" xmlns="http://www.w3.org/2000/svg"><ellipse cx="22.21" cy="22.07" fill="#dcff46" rx="21.9" ry="21.78"/><g fill="#230f14"><path d="m40.88 21.09a1.7 1.7 0 0 1 -.53 1.21 2.28 2.28 0 0 1 -1.5.66l-14.25 1.04c-.07 6-.43 9.75-.6 11.57 0 .41-.06.72-.08.93-.09 1.43-.59 2.15-1.5 2.15-1.14 0-1.35-1.12-1.46-2.18-.32-2.74-.35-3.93-.51-12.2l-3.77.15c-3.88.15-8.71.35-9.39.35-1.36 0-3.23 0-3.23-2.22 0-1.32.55-1.91 1.91-2.05l31.34-.94c1.74-.05 2.73.13 3.21.59a1.27 1.27 0 0 1 .36.94zm-10.37 4.29a1.48 1.48 0 0 0 -1.16.5c-.67.78-.61 2.26-.44 3.35l.88 7.85c.1.82.35 1.58 1.5 1.58 1.35 0 1.54-1.44 1.54-3 0-1.13 0-2.26.05-3.46s.06-2.58.06-4a2.68 2.68 0 0 0 -2.43-2.82zm-16.43 1.54a1.43 1.43 0 0 0 -1.13.5c-.71.82-.6 2.42-.47 3.3l.89 6.35c.1.82.34 1.58 1.48 1.58 1.34 0 1.53-1.44 1.53-3l.11-5.86a2.68 2.68 0 0 0 -2.41-2.87zm-.08-8.64a1.49 1.49 0 0 0 1.17-.51c.66-.77.59-2.17.43-3.21l-.93-7.56c-.1-.8-.35-1.53-1.5-1.53-1.36 0-1.54 1.39-1.54 2.89 0 1.09 0 2.17-.06 3.33s-.05 2.47-.05 3.79a2.63 2.63 0 0 0 2.48 2.8zm16.65-.28a1.35 1.35 0 0 0 1.09-.49c.75-.85.64-2.6.5-3.56l-.88-6.79c-.1-.87-.34-1.68-1.49-1.68s-1.52 1.28-1.52 3.19l-.11 6.33c0 1.63 1.08 3 2.41 3zm-10-1.68c.09.87.34 1.68 1.48 1.68s1.53-1.28 1.53-3.19l.11-6.27c0-1.69-1.08-3.06-2.41-3.06a1.4 1.4 0 0 0 -1.1.48c-.74.86-.63 2.6-.5 3.57z"/><path d="m136.45 38.66h4.76v-12.31c0-3.57 1.7-7.24 6.61-7.24 4.71 0 6.65 3.57 6.65 7.34v12.21h4.76v-12.74c0-7.49-5.39-11.2-11.41-11.25s-11.37 3.76-11.37 11.33zm-23.45-27.23 13-3.57-1.3-4.15-12.91 3.57zm6 23.37a7.52 7.52 0 0 1 -7.75-7.8 7.56 7.56 0 0 1 7.75-7.89 7.68 7.68 0 0 1 7.84 7.89 7.63 7.63 0 0 1 -7.84 7.8zm-.24 4.44a10.47 10.47 0 0 0 8.21-3.47v2.89h4.76v-23.41h-4.76v3a10.57 10.57 0 0 0 -8.21-3.62 12.17 12.17 0 0 0 -12.36 12.37 12.13 12.13 0 0 0 12.33 12.24zm-20.76-.58h4.76v-33.22h-4.76zm-15.79 0h4.76v-12.31c0-3.57 1.7-7.24 6.61-7.24h.77v-4.44h-.77c-6.17 0-11.37 3.76-11.37 11.34zm-9.71 0h4.76v-23.41h-4.81zm-11.36 0h5v-28.19l11.12-.58v-4.45l-27.87 1.07v4.78l11.7-.58zm-4.14 7.93h11.15v2.52h-8.06v5.57h6.28v2.53h-6.28v8.25h-3.09zm18.53 3.67a6.43 6.43 0 0 1 5.22 2.41v-2.17h3.14v15h-3.16v-2.26a6.52 6.52 0 0 1 -5.27 2.47c-3.91 0-7-3.18-7-7.8s3.09-7.65 7.05-7.65zm.66 2.68a4.61 4.61 0 0 0 -4.57 5c0 3.23 2.24 5.11 4.57 5.11s4.54-1.85 4.54-5.05-2.22-5.06-4.56-5.06zm14.06 12.52h-3.11v-15h3.11v2.17a4.92 4.92 0 0 1 4.51-2.41v3.2h-.76c-2.3 0-3.72.95-3.72 4.13zm27.88-8.36c0-2.74-1.5-4.16-3.76-4.16s-3.8 1.42-3.8 4.16v8.36h-3.09v-8.36c0-2.74-1.5-4.16-3.77-4.16s-3.79 1.42-3.79 4.16v8.36h-3.12v-15h3.12v1.71a5.75 5.75 0 0 1 4.45-2 5.82 5.82 0 0 1 5.41 3 5.91 5.91 0 0 1 5.24-3c3.52 0 6.2 2.19 6.2 6.38v8.82h-3.09zm7.87 6.81h6.85v1.55h-8.85v-19h2zm8.58-16.47a1.4 1.4 0 0 1 -.41-1 1.32 1.32 0 0 1 .41-1 1.37 1.37 0 0 1 1-.39 1.41 1.41 0 0 1 1 .39 1.32 1.32 0 0 1 .41 1 1.4 1.4 0 0 1 -.41 1 1.37 1.37 0 0 1 -1 .4 1.34 1.34 0 0 1 -1.04-.4zm2.09 3.2v14.82h-1.91v-14.82zm10 1.6h-3.47v13.22h-1.91v-13.22h-2.07v-1.6h2.07v-1a4.61 4.61 0 0 1 1.25-3.56 5.83 5.83 0 0 1 4-1.14v1.63a3.76 3.76 0 0 0 -2.6.71 3.08 3.08 0 0 0 -.76 2.36v1h3.47zm15.06 5a7.07 7.07 0 0 0 -.86-3.46 6.44 6.44 0 0 0 -2.46-2.48 7.3 7.3 0 0 0 -3.73-.93 7.63 7.63 0 0 0 -3.79.93 6.41 6.41 0 0 0 -2.6 2.66 8.4 8.4 0 0 0 -.93 4 8.25 8.25 0 0 0 .95 4 6.53 6.53 0 0 0 2.6 2.66 7.51 7.51 0 0 0 3.77.94 7.19 7.19 0 0 0 4.49-1.37 6.33 6.33 0 0 0 2.34-3.54h-2a4.2 4.2 0 0 1 -1.68 2.41 5.28 5.28 0 0 1 -3.13.9 5.8 5.8 0 0 1 -2.62-.61 4.82 4.82 0 0 1 -1.94-1.81 6 6 0 0 1 -.82-2.88h12.37a13.81 13.81 0 0 0 .01-1.37zm-12.43 0a5.41 5.41 0 0 1 1.67-3.83 5.2 5.2 0 0 1 3.63-1.36 5.77 5.77 0 0 1 2.62.6 4.54 4.54 0 0 1 1.9 1.76 5.28 5.28 0 0 1 .67 2.83z"/></g></svg>